<?xml version="1.0" standalone="no"?>
<!DOCTYPE svg PUBLIC "-//W3C//DTD SVG 20010904//EN"
 "http://www.w3.org/TR/2001/REC-SVG-20010904/DTD/svg10.dtd">
<svg version="1.0" xmlns="http://www.w3.org/2000/svg"
 width="512.000000pt" height="512.000000pt" viewBox="0 0 512.000000 512.000000"
 preserveAspectRatio="xMidYMid meet">

<g transform="translate(0.000000,512.000000) scale(0.100000,-0.100000)"
fill="#000000" stroke="none">
<path d="M2899 4556 c-3 -3 -45 -10 -93 -15 -75 -9 -99 -16 -155 -50 -68 -40
-147 -71 -181 -71 -11 0 -38 -7 -60 -16 -49 -20 -73 -60 -96 -161 -25 -115
-54 -193 -112 -307 -121 -239 -241 -385 -370 -454 -31 -17 -165 -71 -297 -121
-277 -105 -332 -130 -471 -212 -107 -63 -180 -128 -218 -194 -12 -22 -53 -80
-91 -130 -76 -100 -120 -188 -159 -315 -75 -251 -75 -442 0 -650 44 -125 67
-160 185 -288 235 -254 277 -308 342 -442 62 -128 109 -190 182 -240 82 -57
246 -141 366 -188 166 -66 205 -78 334 -101 61 -11 132 -25 159 -31 27 -6 61
-8 75 -6 14 3 85 12 156 20 83 10 166 27 230 47 93 30 114 32 300 40 177 6
213 10 310 37 61 17 165 55 232 86 131 60 197 83 337 115 49 11 126 39 170 61
102 51 267 187 317 260 68 101 158 353 208 586 16 76 41 171 55 209 58 160 22
421 -93 660 -148 310 -356 514 -691 676 -159 78 -274 147 -326 198 -138 133
-327 528 -339 709 -6 88 -44 177 -104 243 -33 36 -87 60 -102 45z m81 -85 c21
-22 49 -64 64 -94 22 -47 25 -68 27 -171 3 -150 1 -152 -119 -158 -76 -4 -96
-9 -159 -41 -79 -40 -130 -47 -186 -23 -28 11 -41 31 -93 137 -88 180 -101
216 -82 235 13 13 118 37 126 29 2 -2 -8 -20 -22 -41 -34 -50 -22 -65 16 -20
30 36 51 45 63 26 4 -6 1 -18 -6 -26 -6 -8 -8 -18 -4 -22 4 -4 31 20 61 52 56
61 73 67 29 10 -14 -18 -25 -35 -25 -37 0 -3 27 -15 60 -27 33 -12 60 -24 60
-27 0 -2 -7 -15 -16 -29 -9 -13 -14 -28 -10 -32 4 -3 10 -2 14 4 11 16 55 44
69 44 21 0 15 -17 -17 -54 -54 -61 -17 -46 59 24 64 59 73 71 62 84 -8 9 -11
26 -7 41 7 27 -3 32 -35 15 -30 -17 -22 2 13 32 30 25 31 27 12 28 -12 0 -28
-7 -35 -16 -14 -17 -59 -37 -66 -30 -3 2 1 14 7 26 17 31 6 35 -29 10 -45 -32
-38 -13 16 42 63 64 99 66 153 9z m-170 -119 c0 -16 -24 -32 -48 -32 l-24 0
23 20 c25 20 49 26 49 12z m30 -37 c-7 -9 -15 -13 -18 -10 -3 2 1 11 8 20 7 9
15 13 18 10 3 -2 -1 -11 -8 -20z m80 -3 c0 -18 -35 -41 -50 -32 -11 7 -11 11
-1 24 14 17 51 22 51 8z m-465 -172 c39 -83 79 -161 91 -174 25 -28 119 -51
169 -42 18 4 50 18 71 33 53 36 115 53 193 53 39 0 78 6 95 15 16 9 30 14 31
13 3 -4 61 -158 70 -183 3 -11 -4 -2 -15 20 -47 86 -48 87 -78 71 -15 -7 -63
-17 -107 -21 -75 -7 -105 -17 -105 -35 0 -4 17 -4 38 1 20 5 64 8 97 8 l60 0
-28 -24 c-32 -28 -55 -32 -63 -10 -8 20 -23 19 -31 -2 -4 -10 -13 -24 -20 -31
-7 -7 -13 -21 -13 -31 0 -22 179 -386 186 -378 3 3 -31 85 -76 182 -44 98 -78
180 -75 183 7 7 7 8 54 -85 31 -60 52 -88 77 -103 23 -13 42 -36 55 -65 11
-24 24 -47 29 -50 11 -7 1 26 -34 119 -31 81 -31 86 -8 86 24 0 57 -67 42 -85
-8 -10 -2 -18 24 -33 21 -13 37 -17 43 -11 6 6 20 -6 37 -32 34 -51 45 -45 16
10 -22 45 -20 61 10 61 11 0 27 -16 41 -40 30 -53 35 -45 9 15 -11 26 -19 50
-17 52 2 2 31 -30 65 -70 l61 -74 -24 -104 c-27 -116 -29 -127 -16 -113 5 5
23 53 41 106 l32 98 26 -15 c15 -8 54 -32 87 -55 48 -33 54 -39 30 -34 -51 12
-93 33 -103 51 -8 14 -12 13 -24 -13 -19 -36 -29 -112 -17 -119 4 -3 15 10 23
28 19 48 40 60 31 18 -4 -20 -3 -31 4 -31 6 0 11 3 11 8 0 4 7 16 15 26 21 28
45 4 46 -48 l1 -41 15 35 c19 44 18 43 43 35 17 -5 20 -12 15 -35 -8 -37 12
-48 27 -15 15 34 32 27 38 -16 l5 -34 17 24 18 25 22 -20 c13 -11 43 -28 67
-37 l45 -17 -27 28 c-48 50 -29 44 63 -19 90 -61 96 -69 103 -134 l3 -30 12
28 c6 15 16 27 20 27 18 0 143 -136 203 -220 112 -155 192 -342 223 -520 14
-79 16 -110 7 -180 -6 -46 -11 -88 -11 -92 0 -5 -4 -8 -9 -8 -5 0 -12 22 -16
48 -3 26 -10 54 -16 62 -12 20 -12 -52 1 -119 10 -54 -4 -161 -20 -144 -4 4
-20 55 -35 113 -15 58 -32 109 -36 114 -21 23 -19 -32 4 -131 14 -59 29 -144
32 -188 6 -72 4 -83 -13 -105 l-20 -25 -7 63 c-13 106 -25 92 -40 -48 -8 -73
-25 -97 -75 -105 -40 -7 -41 -8 -21 -22 17 -12 21 -24 20 -71 0 -31 -3 -51 -6
-44 -8 20 -33 14 -33 -9 0 -31 -17 -59 -73 -116 -55 -57 -50 -73 6 -23 19 16
37 30 41 30 3 0 6 -28 6 -63 0 -62 -13 -96 -48 -125 -26 -20 -32 -14 -32 34 0
57 -22 56 -31 -1 -4 -21 -15 -44 -25 -52 -16 -12 -19 -11 -26 7 -11 31 -26 24
-34 -15 -6 -33 -28 -55 -53 -55 -6 0 -11 20 -11 45 0 35 -3 43 -15 39 -10 -4
-15 -20 -15 -48 0 -48 -12 -67 -55 -90 l-30 -15 42 -1 c30 0 50 7 71 25 34 29
84 36 62 9 -35 -41 -182 -98 -308 -119 -42 -7 -43 -6 -37 18 8 30 -12 178 -25
191 -7 7 -10 -23 -10 -86 0 -117 -8 -129 -117 -185 -227 -117 -548 -184 -658
-139 -18 8 -75 53 -126 101 -50 47 -94 83 -97 81 -7 -8 45 -84 95 -137 l45
-48 -109 -34 c-59 -18 -110 -30 -112 -25 -2 5 23 34 55 63 32 30 55 58 51 61
-4 4 -17 -2 -30 -14 -13 -12 -27 -22 -31 -22 -9 0 -3 44 9 74 7 16 6 17 -13 7
-31 -16 -35 1 -12 53 l19 46 -24 -16 c-19 -12 -28 -14 -39 -5 -11 9 -15 5 -20
-21 -3 -18 -18 -45 -33 -60 l-27 -28 -38 37 c-42 41 -50 30 -17 -23 12 -21 18
-41 14 -54 -5 -16 -2 -20 19 -20 21 0 26 -5 26 -23 0 -16 9 -28 25 -35 23 -10
36 -42 18 -42 -5 0 -66 -7 -136 -16 -95 -12 -131 -14 -140 -5 -8 8 2 11 39 12
27 0 69 4 94 8 l45 7 -54 7 c-68 8 -143 -1 -158 -20 -10 -13 -24 -13 -114 1
-133 20 -151 36 -39 36 56 0 81 3 74 10 -12 12 -206 16 -250 6 -25 -6 -45 -1
-102 28 -39 20 -81 36 -92 36 -12 0 -33 6 -49 14 -35 19 -138 128 -207 222
-55 75 -74 93 -74 74 0 -20 22 -54 87 -133 36 -43 63 -81 60 -83 -7 -8 -61 16
-83 37 -13 12 -20 28 -17 39 4 13 -6 25 -34 43 -45 30 -96 82 -152 157 -64 85
-47 93 29 13 37 -40 71 -73 74 -73 15 0 2 21 -53 82 -113 127 -105 111 -172
371 -11 42 -29 41 -29 -1 1 -15 9 -63 20 -107 10 -44 16 -82 13 -85 -5 -5 -92
85 -199 206 -46 53 -52 64 -46 88 l8 28 38 -43 c36 -39 136 -115 136 -102 0 2
-15 23 -34 45 -19 22 -43 63 -54 91 -11 29 -24 61 -28 72 -7 19 -8 19 -11 -3
-3 -15 -11 -22 -28 -22 -19 0 -27 8 -36 39 -7 24 -21 43 -35 50 -13 5 -38 33
-56 60 -34 51 -70 82 -47 40 6 -11 8 -23 5 -26 -8 -8 -56 97 -56 122 0 11 -7
31 -17 44 -20 30 -19 64 7 174 27 117 69 224 130 330 27 48 50 97 50 110 -1
19 -6 16 -41 -23 -43 -48 -38 -28 11 45 45 68 43 72 -8 18 -61 -63 -90 -122
-137 -273 -31 -100 -35 -108 -30 -60 9 83 54 247 87 318 27 57 174 264 246
346 78 90 238 186 401 241 128 44 438 168 512 206 33 16 88 54 124 84 36 31
65 51 65 45 0 -5 13 -10 29 -10 24 0 31 6 40 31 6 18 11 46 11 64 0 17 6 40
14 50 13 18 15 17 26 -23 19 -60 33 -41 25 33 -6 52 -4 69 11 95 14 23 24 30
40 26 20 -5 21 -2 17 42 -4 39 2 61 32 126 20 43 48 125 63 182 14 57 29 104
32 104 3 0 37 -68 75 -150z m644 -352 c21 -50 19 -58 -16 -58 -39 0 -72 104
-35 113 23 5 27 0 51 -55z m91 -29 c0 -5 -4 -9 -9 -9 -12 0 -28 21 -35 50 l-7
25 25 -28 c14 -15 26 -32 26 -38z m49 -83 c25 -39 26 -46 8 -46 -11 0 -47 58
-47 75 0 16 21 0 39 -29z m-2528 -1918 c17 -29 39 -64 48 -78 15 -24 15 -25
-4 -10 -35 26 -85 103 -85 130 0 19 8 10 41 -42z m76 -43 l16 -30 -28 25 c-26
24 -55 71 -55 87 1 12 48 -47 67 -82z m3617 -77 c-8 -27 -12 -33 -19 -27 -7 8
7 49 17 49 5 0 6 -10 2 -22z m-74 -109 c-7 -16 -16 -29 -21 -29 -16 0 -9 68 9
86 16 17 17 17 20 -5 2 -13 -2 -36 -8 -52z m-29 -166 c-6 -21 -22 -56 -36 -78
l-24 -40 -1 35 c0 69 11 110 31 110 12 0 21 10 26 28 7 24 8 25 11 5 2 -12 -2
-39 -7 -60z m-223 -265 c-2 -6 -15 -18 -28 -27 -21 -14 -23 -14 -16 -1 16 27
28 40 38 40 5 0 8 -5 6 -12z m-1537 -294 c11 -13 8 -19 -17 -39 -26 -22 -30
-22 -41 -8 -11 14 -9 21 9 40 25 27 31 28 49 7z m39 -63 c0 -4 -13 -15 -30
-24 -33 -20 -38 -13 -15 20 14 20 45 22 45 4z"/>
<path d="M2955 4234 c-36 -18 -73 -52 -87 -78 -12 -22 67 32 103 70 26 28 24
29 -16 8z"/>
<path d="M2736 4185 c4 -8 13 -15 21 -15 13 0 13 3 3 15 -7 8 -16 15 -21 15
-5 0 -6 -7 -3 -15z"/>
<path d="M2989 4190 c-9 -5 -24 -21 -33 -35 l-17 -26 28 14 c37 19 72 57 52
57 -8 0 -21 -5 -30 -10z"/>
<path d="M2650 4090 c0 -5 13 -10 29 -10 17 0 33 5 36 10 4 6 -8 10 -29 10
-20 0 -36 -4 -36 -10z"/>
<path d="M2423 4098 c-6 -7 -23 -51 -38 -98 -15 -47 -30 -91 -33 -97 -2 -7 0
-13 5 -13 11 0 50 77 78 153 12 32 15 51 8 58 -7 7 -13 6 -20 -3z"/>
<path d="M2821 3874 c20 -73 169 -367 169 -332 0 11 -161 352 -171 362 -4 5
-4 -8 2 -30z"/>
<path d="M2710 3818 c-42 -95 -109 -328 -95 -328 12 0 135 333 135 366 0 29
-18 12 -40 -38z"/>
<path d="M2502 3760 c-17 -27 -40 -71 -51 -97 l-21 -48 30 35 c27 32 90 140
90 154 0 19 -21 0 -48 -44z"/>
<path d="M2526 3588 c-9 -12 -16 -32 -16 -43 1 -17 5 -15 30 15 17 19 30 38
30 42 0 17 -30 7 -44 -14z"/>
<path d="M2916 3527 c-17 -25 -18 -34 -8 -78 17 -71 15 -253 -4 -425 -9 -80
-13 -169 -11 -197 3 -29 11 -114 16 -190 13 -158 46 -350 96 -552 19 -77 46
-205 60 -285 14 -80 34 -179 45 -220 33 -136 43 -211 37 -289 -5 -77 -22 -130
-41 -132 -79 -8 -160 68 -181 171 l-7 35 31 -29 c39 -37 52 -27 19 16 -14 18
-33 49 -42 68 l-17 35 35 -40 c42 -48 58 -41 22 11 -18 28 -23 41 -15 50 12
15 12 16 -52 101 -60 78 -68 128 -15 88 37 -28 36 -15 -4 47 -39 60 -45 83
-15 58 13 -11 15 -9 15 11 0 13 -7 65 -16 114 -8 50 -15 143 -15 208 0 104 -3
118 -19 127 -17 9 -18 6 -14 -48 4 -56 4 -56 -10 -27 -16 31 -20 92 -10 119 4
11 14 13 36 9 l30 -6 -36 47 c-30 40 -36 56 -36 97 0 50 7 58 28 37 20 -20 23
-3 5 38 -14 33 -17 79 -17 324 -1 272 -5 320 -29 320 -6 0 -8 -27 -3 -79 3
-44 -1 -216 -10 -383 -25 -466 -13 -733 47 -1018 11 -52 27 -129 35 -170 58
-290 96 -357 213 -376 62 -10 88 8 108 75 22 73 21 219 -1 336 -10 50 -44 205
-76 345 -103 453 -128 599 -151 896 -9 114 -9 178 0 260 12 115 13 448 2 499
l-7 30 -18 -28z m-102 -1443 c3 -9 6 -23 6 -32 -1 -12 -5 -10 -15 8 -8 14 -14
28 -15 33 0 13 18 7 24 -9z m10 -109 c3 -8 1 -15 -3 -15 -5 0 -11 7 -15 15 -3
8 -1 15 3 15 5 0 11 -7 15 -15z m16 -120 c0 -5 -5 -3 -10 5 -5 8 -10 20 -10
25 0 6 5 3 10 -5 5 -8 10 -19 10 -25z"/>
<path d="M3377 3475 c9 -19 18 -33 21 -31 4 5 -26 66 -33 66 -3 0 3 -16 12
-35z"/>
<path d="M2000 3368 c-47 -28 -161 -91 -255 -141 -174 -92 -325 -186 -475
-297 -197 -147 -343 -341 -440 -585 -34 -86 -38 -151 -13 -198 l18 -32 6 75
c5 71 33 160 45 147 3 -3 10 -22 14 -43 7 -32 6 -40 -11 -52 -24 -17 -24 -29
1 -37 46 -15 183 103 245 211 46 81 129 187 198 254 91 87 186 149 377 245 91
45 176 92 190 103 l25 21 -44 -10 c-55 -12 -342 -157 -431 -218 -126 -85 -232
-194 -318 -326 -84 -128 -143 -204 -164 -211 -24 -7 -38 9 -38 47 0 20 6 28
24 33 15 4 26 16 30 32 4 15 54 83 112 150 57 68 104 127 104 130 0 4 -15 -5
-34 -20 -38 -29 -42 -27 -52 30 -4 31 -1 45 16 67 12 15 26 27 31 27 13 0 11
-44 -3 -58 -17 -17 -4 -26 26 -18 25 6 25 9 20 64 -4 40 -2 62 8 73 17 21 307
227 409 290 42 26 132 76 200 109 178 89 288 165 267 185 -2 2 -42 -19 -88
-47z m-911 -753 c1 -38 -12 -65 -31 -65 -12 0 -10 84 3 117 10 26 12 27 19 8
5 -11 9 -38 9 -60z m-60 -81 c1 -40 -9 -49 -26 -24 -18 25 -33 26 -33 1 0 -19
-17 -38 -25 -29 -6 6 34 91 53 111 16 18 17 18 23 -5 4 -12 7 -37 8 -54z m-89
-100 c0 -31 -2 -35 -14 -24 -12 9 -13 17 -4 36 15 32 18 30 18 -12z"/>
<path d="M2372 3383 c-11 -15 -45 -80 -77 -143 -97 -193 -265 -491 -325 -575
-190 -267 -314 -465 -381 -610 -36 -75 -79 -272 -119 -542 -20 -136 -35 -206
-51 -238 -42 -84 -61 -82 -103 11 -18 40 -30 54 -45 54 -27 0 -26 -6 5 -76 35
-78 51 -94 89 -94 26 0 39 8 59 35 50 65 67 120 87 283 24 189 54 376 70 434
18 68 154 337 219 434 33 49 91 132 129 184 117 158 304 478 375 640 21 47 52
115 69 153 32 72 32 96 -1 50z"/>
<path d="M3140 3345 c0 -22 89 -234 147 -350 59 -118 262 -428 339 -519 96
-113 132 -173 277 -466 180 -361 207 -468 156 -605 -26 -71 -61 -95 -137 -95
-55 0 -93 15 -149 57 -39 28 -67 71 -36 54 10 -5 33 -21 52 -35 66 -49 63 -26
-5 42 -117 115 -236 253 -254 296 -10 23 -25 65 -34 95 l-16 54 24 -22 c24
-22 51 -95 42 -110 -9 -14 29 -55 122 -134 129 -108 145 -119 177 -115 44 5
44 28 0 28 -46 0 -78 22 -139 98 -28 36 -53 59 -61 55 -14 -5 -58 54 -70 95
-6 21 -4 22 22 16 27 -6 27 -6 -14 38 -30 30 -43 52 -43 72 0 16 -13 44 -29
65 -15 20 -34 47 -41 60 -11 21 -10 23 4 18 9 -4 24 -10 34 -14 10 -4 1 12
-21 38 -53 63 -75 108 -58 119 11 6 9 17 -13 54 -15 26 -41 62 -57 81 -23 25
-28 40 -23 59 3 13 2 35 -2 48 -6 21 -8 21 -14 4 -5 -17 -8 -16 -24 10 -11 15
-21 48 -23 73 -4 45 -4 45 11 21 23 -38 20 -22 -31 167 -41 152 -48 171 -58
152 -11 -20 -13 -19 -28 20 -10 23 -17 54 -17 69 0 38 -93 288 -105 282 -13
-7 -8 -41 21 -137 13 -44 37 -137 54 -206 16 -68 43 -163 60 -210 16 -46 43
-136 59 -198 55 -211 224 -702 286 -833 45 -95 124 -213 179 -268 91 -91 181
-117 299 -87 40 10 51 18 66 48 57 111 66 234 25 362 -29 92 -262 564 -335
679 -26 41 -62 89 -79 105 -38 36 -279 397 -343 511 -24 45 -73 143 -107 218
-62 134 -90 178 -90 141z m68 -600 c12 -25 17 -63 7 -54 -2 3 -11 22 -20 42
-17 41 -5 52 13 12z m157 -491 c20 -48 19 -54 -5 -25 -18 21 -28 61 -15 61 3
0 12 -16 20 -36z m55 -189 c0 -21 12 -48 36 -79 39 -51 42 -71 5 -32 -25 27
-81 156 -73 170 9 16 32 -27 32 -59z"/>
<path d="M2668 3335 c-3 -6 -11 -38 -17 -71 -13 -69 -84 -285 -128 -389 -16
-38 -69 -193 -118 -342 -63 -197 -85 -280 -81 -299 4 -15 11 -23 15 -18 4 5
45 131 91 279 45 149 113 345 151 437 37 92 75 198 84 235 15 64 18 190 3 168z"/>
<path d="M2463 3220 c-6 -14 -30 -68 -53 -120 -23 -52 -59 -142 -80 -200 -21
-58 -70 -184 -108 -280 -130 -323 -181 -482 -198 -615 -9 -66 -12 -138 -9
-160 10 -57 18 -270 16 -400 -1 -60 3 -141 10 -180 14 -86 100 -304 130 -328
29 -24 49 -22 124 12 76 35 80 45 72 170 -6 78 -50 316 -77 409 -23 80 -24
231 -1 374 23 153 25 171 11 148 -24 -42 -63 -232 -67 -330 -5 -96 -2 -118 31
-255 40 -167 73 -396 62 -439 -5 -20 -19 -33 -53 -48 -45 -20 -46 -20 -72 0
-20 15 -37 52 -73 158 -27 76 -46 146 -44 154 2 8 7 0 11 -18 6 -24 12 -31 23
-27 9 3 28 -7 49 -26 48 -47 50 -30 3 32 -44 59 -50 85 -20 94 19 6 19 7 -2
35 -18 25 -20 33 -9 56 6 14 9 40 6 58 -3 17 1 105 10 196 17 186 19 257 5
225 -5 -11 -14 -55 -21 -97 -6 -43 -16 -78 -21 -78 -18 0 -20 30 -5 77 8 26
18 71 21 98 3 28 25 122 50 210 49 171 55 202 32 173 -17 -23 -29 -23 -49 0
-21 23 -21 42 -3 67 13 19 15 18 54 -8 l41 -26 29 77 c45 118 47 134 6 58 -21
-37 -44 -70 -52 -73 -7 -3 -23 3 -34 15 -20 19 -20 22 -6 59 11 27 22 39 39
41 49 6 55 13 27 28 -16 8 -28 17 -28 19 0 3 38 105 84 227 136 362 158 426
153 445 -3 15 -5 14 -14 -7z m-302 -960 c19 -11 26 -44 11 -54 -17 -10 -50 23
-45 44 6 23 8 24 34 10z m-21 -88 c17 -14 20 -23 15 -45 -6 -21 -12 -26 -24
-21 -9 3 -23 8 -32 11 -14 4 -15 10 -6 39 12 39 17 41 47 16z m-17 -148 c-15
-40 -61 16 -47 58 5 18 8 16 29 -12 13 -18 21 -38 18 -46z m-27 -99 c-6 -22
-9 -25 -21 -15 -16 13 -20 51 -8 64 14 14 36 -22 29 -49z m-25 -112 c-9 -15
-10 -12 -10 17 0 29 1 32 10 18 7 -12 7 -24 0 -35z m49 -131 l0 -43 -31 21
c-19 14 -28 28 -25 37 3 8 6 19 6 24 0 5 11 8 25 7 23 -2 25 -7 25 -46z m-13
-88 c2 -7 3 -23 1 -36 -3 -20 -6 -18 -26 18 -21 42 -21 42 -1 37 11 -3 23 -12
26 -19z m-7 -134 c0 -13 -1 -13 -10 0 -5 8 -10 22 -10 30 0 13 1 13 10 0 5 -8
10 -22 10 -30z m-6 -75 c3 -8 1 -15 -4 -15 -6 0 -10 7 -10 15 0 8 2 15 4 15 2
0 6 -7 10 -15z"/>
<path d="M3660 3192 c0 -12 37 -44 105 -90 156 -104 331 -316 453 -547 24 -44
52 -88 64 -97 46 -40 128 -9 128 47 0 31 -7 31 -32 0 -34 -44 -48 -33 -48 39
0 49 -5 69 -20 87 l-19 24 -1 -50 c-1 -46 -2 -49 -15 -31 -9 11 -15 41 -15 68
0 40 -3 48 -19 48 -15 0 -20 9 -23 41 -2 22 -1 42 3 45 4 2 33 -30 65 -71 62
-79 83 -85 40 -12 -28 49 -98 117 -120 117 -8 0 -17 -8 -20 -17 -6 -14 -8 -14
-22 5 -8 12 -23 22 -34 22 -11 0 -28 18 -45 48 -35 60 -54 82 -73 82 -8 0 -52
35 -97 78 -117 111 -255 199 -255 164z"/>
<path d="M2009 2977 c-65 -83 -180 -227 -256 -318 -167 -200 -225 -278 -287
-385 -122 -210 -196 -463 -196 -664 0 -57 14 -86 30 -60 5 8 12 -7 19 -40 6
-28 18 -62 27 -73 14 -21 15 -20 8 18 l-7 40 22 -19 c29 -26 27 -14 -18 97
-22 54 -36 97 -31 97 5 0 12 -4 15 -10 8 -13 25 -13 25 1 0 6 50 117 110 247
61 129 113 247 116 261 5 25 5 26 -11 6 -9 -11 -43 -75 -76 -143 -32 -68 -63
-121 -67 -118 -15 9 -35 113 -28 140 8 33 22 26 31 -14 4 -16 11 -32 16 -35
12 -8 12 61 -1 104 -6 23 -6 40 2 55 11 20 13 19 30 -21 10 -24 24 -43 29 -43
6 0 9 6 6 14 -8 20 31 94 53 101 10 3 23 20 29 36 6 17 22 40 36 51 14 11 25
27 25 36 1 9 28 53 61 97 56 76 95 143 86 151 -2 2 -34 -37 -72 -87 -37 -49
-72 -92 -76 -94 -4 -3 -12 8 -17 24 -10 28 -5 36 105 168 137 163 331 406 359
448 11 17 25 42 32 58 27 64 -18 20 -129 -126z m-399 -611 c0 -47 -22 -80 -34
-50 -11 28 -31 -1 -28 -39 2 -22 -4 -42 -17 -58 -22 -27 -33 -22 -33 15 0 25
89 176 104 176 4 0 8 -20 8 -44z m-203 -497 c3 -17 1 -29 -5 -29 -14 0 -32 56
-31 94 l1 31 14 -34 c8 -18 18 -46 21 -62z m-67 -120 c0 -6 -4 -7 -10 -4 -5 3
-10 11 -10 16 0 6 5 7 10 4 6 -3 10 -11 10 -16z"/>
<path d="M3427 3083 c28 -69 103 -163 242 -301 163 -163 299 -340 375 -489 58
-114 105 -179 123 -172 7 2 -25 72 -77 169 -81 153 -98 192 -68 162 7 -7 16
-12 20 -12 18 0 6 21 -42 73 -32 35 -46 57 -38 59 20 7 -8 36 -68 70 -65 36
-83 56 -64 68 11 7 11 12 -3 32 -9 13 -32 46 -51 74 -43 65 -81 96 -111 88
-19 -5 -30 5 -66 51 -35 45 -49 55 -67 52 -19 -4 -28 5 -55 54 -19 36 -39 59
-49 59 -16 0 -16 -3 -1 -37z m504 -489 c11 -14 10 -15 -11 -12 -13 1 -25 9
-28 16 -5 17 23 15 39 -4z"/>
<path d="M1536 3034 c-27 -27 -17 -36 14 -14 17 12 30 23 30 26 0 10 -30 3
-44 -12z"/>
<path d="M1409 2956 c-26 -19 -57 -49 -69 -66 l-23 -32 30 15 c31 17 89 71
104 100 13 23 12 22 -42 -17z"/>
<path d="M2310 2655 c12 -15 30 -12 30 6 0 5 -10 9 -21 9 -18 0 -19 -2 -9 -15z"/>
<path d="M4470 2391 c0 -28 -7 -71 -16 -97 -20 -60 -11 -67 17 -12 25 49 32
148 12 155 -9 3 -13 -10 -13 -46z"/>
<path d="M2806 2381 c-8 -13 33 -46 43 -35 6 5 0 16 -14 27 -13 9 -26 13 -29
8z"/>
<path d="M4224 2230 c9 -30 29 -115 51 -222 9 -43 21 -78 26 -78 13 0 10 115
-5 185 -15 70 -26 93 -57 120 l-22 20 7 -25z"/>
<path d="M706 1952 c-3 -5 1 -18 9 -28 14 -18 14 -18 15 3 0 23 -15 39 -24 25z"/>
<path d="M3437 1623 c-4 -3 -7 -13 -7 -21 0 -9 -22 -66 -50 -128 -69 -155 -62
-175 11 -30 55 109 61 117 74 100 21 -27 55 -141 49 -159 -10 -25 -27 -17 -22
10 4 18 -1 29 -18 40 -13 8 -25 15 -28 15 -7 0 -56 -88 -56 -101 0 -7 8 -5 21
7 20 17 19 15 -5 -33 -14 -29 -26 -55 -26 -58 0 -14 17 -2 33 23 9 15 26 38
37 52 19 24 20 24 20 4 0 -12 -16 -42 -36 -68 -20 -26 -33 -50 -30 -54 4 -3
12 0 18 6 7 7 16 12 20 12 4 0 -17 -32 -47 -71 -30 -39 -55 -74 -55 -77 0 -4
35 28 78 71 43 43 81 74 85 71 16 -17 2 -44 -63 -124 -39 -46 -70 -88 -70 -93
0 -15 52 31 107 96 30 34 58 63 63 65 6 2 5 13 -2 25 -15 27 -19 127 -6 127
15 0 0 85 -27 155 -13 33 -29 79 -35 103 -10 40 -19 50 -33 35z"/>
<path d="M3470 1015 c-8 -9 -8 -15 -2 -15 12 0 26 19 19 26 -2 2 -10 -2 -17
-11z"/>
<path d="M3512 968 c-24 -33 -46 -68 -49 -77 -10 -28 78 62 98 102 31 60 0 44
-49 -25z"/>
<path d="M2620 1001 c0 -5 7 -14 15 -21 16 -14 18 -10 9 14 -6 17 -24 22 -24
7z"/>
<path d="M1655 801 c18 -18 127 -52 190 -57 82 -7 54 8 -65 35 -52 12 -104 25
-115 28 -14 4 -17 2 -10 -6z"/>
</g>
</svg>
